<svg xmlns="http://www.w3.org/2000/svg" width="16.009" height="14.23" viewBox="0 0 16.009 14.23"><defs><style>.a{fill:#4e4e4e;}</style></defs><path class="a" d="M16.009.667V4.224A.668.668,0,0,1,14.87,4.7l-.992-1L7.11,10.472a.667.667,0,0,1-.943,0l-.629-.629a.667.667,0,0,1,0-.943l6.768-6.768-.992-.992A.668.668,0,0,1,11.785,0h3.557a.667.667,0,0,1,.667.667Zm-4.7,6.859-.445.445a.667.667,0,0,0-.2.472v4.009H1.779V3.558H9.116a.667.667,0,0,0,.472-.2l.445-.445a.667.667,0,0,0-.472-1.139H1.334A1.334,1.334,0,0,0,0,3.113V12.9a1.334,1.334,0,0,0,1.334,1.33h9.783a1.334,1.334,0,0,0,1.334-1.33V8a.667.667,0,0,0-1.138-.474Z"/></svg>