<svg xmlns="http://www.w3.org/2000/svg" width="311.361" height="216.146" viewBox="0 0 311.361 216.146">
  <g id="undraw_not_found_60pq" transform="translate(0)">
    <circle id="Ellipse_5" data-name="Ellipse 5" cx="17.783" cy="17.783" r="17.783" transform="translate(41.287 10.836)" fill="#ffe27a"/>
    <path id="Path_143" data-name="Path 143" d="M274.076,156.379c0,41.959-24.944,56.609-55.714,56.609s-55.714-14.651-55.714-56.609,55.714-95.337,55.714-95.337S274.076,114.42,274.076,156.379Z" transform="translate(-128.488 -61.042)" fill="#f2f2f2"/>
    <path id="Path_144" data-name="Path 144" d="M257.957,145.528l.571-35.116,23.746-43.443L258.618,104.9l.256-15.79L275.24,57.684l-16.3,27.252h0l.461-28.4,17.525-25.023L259.476,52.072,259.764,0l-1.812,68.934.149-2.844L240.283,38.817l17.532,32.732-1.66,31.716-.049-.842-20.541-28.7L256.044,105.4l-.208,3.966-.037.06.017.326L251.6,190.215h5.628l.675-41.562,20.428-31.6Z" transform="translate(-170.113)" fill="#3f3d56"/>
    <path id="Path_145" data-name="Path 145" d="M923.245,263.19c0,34.345-20.418,46.337-45.6,46.337s-45.6-11.992-45.6-46.337,45.6-78.038,45.6-78.038S923.245,228.845,923.245,263.19Z" transform="translate(-611.884 -150.668)" fill="#f2f2f2"/>
    <path id="Path_146" data-name="Path 146" d="M902.843,243.232l.467-28.744,19.438-35.56-19.365,31.051.21-12.924,13.4-25.728-13.342,22.307h0l.378-23.245,14.345-20.482-14.286,16.827.236-42.624-1.483,56.426.122-2.328-14.585-22.325,14.351,26.793-1.359,25.961-.041-.689-16.814-23.493,16.763,25.928-.17,3.247-.03.049.014.266-3.448,65.865h4.607l.553-34.021,16.721-25.864Z" transform="translate(-638.749 -89.626)" fill="#3f3d56"/>
    <ellipse id="Ellipse_6" data-name="Ellipse 6" cx="154.095" cy="7.789" rx="154.095" ry="7.789" transform="translate(0 181.283)" fill="#3f3d56"/>
    <ellipse id="Ellipse_7" data-name="Ellipse 7" cx="26.393" cy="1.334" rx="26.393" ry="1.334" transform="translate(221.575 200.608)" fill="#3f3d56"/>
    <ellipse id="Ellipse_8" data-name="Ellipse 8" cx="26.393" cy="1.334" rx="26.393" ry="1.334" transform="translate(126.07 213.478)" fill="#3f3d56"/>
    <ellipse id="Ellipse_9" data-name="Ellipse 9" cx="60.298" cy="3.048" rx="60.298" ry="3.048" transform="translate(19.708 200.973)" fill="#3f3d56"/>
    <circle id="Ellipse_10" data-name="Ellipse 10" cx="21.95" cy="21.95" r="21.95" transform="translate(5.025 135.389)" fill="#2f2e41"/>
    <rect id="Rectangle_68" data-name="Rectangle 68" width="6.668" height="11.948" transform="translate(16.77 174.447) rotate(0.675)" fill="#2f2e41"/>
    <rect id="Rectangle_69" data-name="Rectangle 69" width="6.668" height="11.948" transform="translate(30.106 174.604) rotate(0.675)" fill="#2f2e41"/>
    <ellipse id="Ellipse_11" data-name="Ellipse 11" cx="2.084" cy="5.557" rx="2.084" ry="5.557" transform="translate(16.603 188.616) rotate(-89.325)" fill="#2f2e41"/>
    <ellipse id="Ellipse_12" data-name="Ellipse 12" cx="2.084" cy="5.557" rx="2.084" ry="5.557" transform="translate(29.942 188.496) rotate(-89.325)" fill="#2f2e41"/>
    <circle id="Ellipse_13" data-name="Ellipse 13" cx="7.502" cy="7.502" r="7.502" transform="translate(20.094 144.287)" fill="#fff"/>
    <circle id="Ellipse_14" data-name="Ellipse 14" cx="2.501" cy="2.501" r="2.501" transform="translate(25.095 149.289)" fill="#3f3d56"/>
    <path id="Path_147" data-name="Path 147" d="M60.27,505.766c-1.679-7.958,4.081-15.911,12.865-17.764s17.265,3.1,18.944,11.054-4.162,10.817-12.945,12.67S61.949,513.724,60.27,505.766Z" transform="translate(-54.346 -369.089)" fill="#81b7a6"/>
    <path id="Path_148" data-name="Path 148" d="M151.675,581.014c0,15.3-9.1,20.646-20.319,20.646q-.39,0-.779-.009c-.52-.011-1.035-.036-1.544-.071-10.128-.717-18-6.335-18-20.567,0-14.729,18.821-33.313,20.235-34.689l0,0,.082-.079S151.675,565.711,151.675,581.014Z" transform="translate(-91.216 -411.429)" fill="#81b7a6"/>
    <path id="Path_149" data-name="Path 149" d="M160.275,599.32l7.432-10.384-7.45,11.525-.02,1.192c-.52-.011-1.035-.036-1.544-.071l.8-15.31-.006-.119.014-.022.076-1.446-7.469-11.553L159.6,583.6l.017.307.605-11.568L153.829,560.4l6.472,9.908.63-23.983,0-.082v.079l-.105,18.912,6.366-7.5-6.392,9.127-.168,10.357,5.944-9.94-5.968,11.464-.094,5.758,8.629-13.835-8.661,15.844Z" transform="translate(-120.876 -411.429)" fill="#3f3d56"/>
    <circle id="Ellipse_15" data-name="Ellipse 15" cx="21.95" cy="21.95" r="21.95" transform="translate(176.015 135.152)" fill="#2f2e41"/>
    <rect id="Rectangle_70" data-name="Rectangle 70" width="6.668" height="11.948" transform="matrix(0.956, -0.294, 0.294, 0.956, 193.465, 176.509)" fill="#2f2e41"/>
    <rect id="Rectangle_71" data-name="Rectangle 71" width="6.668" height="11.948" transform="matrix(0.956, -0.294, 0.294, 0.956, 206.213, 172.591)" fill="#2f2e41"/>
    <ellipse id="Ellipse_16" data-name="Ellipse 16" cx="5.557" cy="2.084" rx="5.557" ry="2.084" transform="matrix(0.956, -0.294, 0.294, 0.956, 196.403, 186.07)" fill="#2f2e41"/>
    <ellipse id="Ellipse_17" data-name="Ellipse 17" cx="5.557" cy="2.084" rx="5.557" ry="2.084" transform="matrix(0.956, -0.294, 0.294, 0.956, 209.07, 181.887)" fill="#2f2e41"/>
    <circle id="Ellipse_18" data-name="Ellipse 18" cx="7.502" cy="7.502" r="7.502" transform="translate(189.363 144.125)" fill="#fff"/>
    <circle id="Ellipse_19" data-name="Ellipse 19" cx="2.501" cy="2.501" r="2.501" transform="translate(194.364 149.126)" fill="#3f3d56"/>
    <path id="Path_150" data-name="Path 150" d="M652.745,518.541c-4.026-7.067-.966-16.4,6.834-20.842s17.387-2.317,21.413,4.749-.664,11.571-8.464,16.015S656.771,525.608,652.745,518.541Z" transform="translate(-481.129 -374.697)" fill="#81b7a6"/>
    <path id="Path_151" data-name="Path 151" d="M514.34,578.344c0,14.047-8.35,18.952-18.652,18.952q-.358,0-.715-.008c-.477-.01-.95-.033-1.417-.065-9.3-.658-16.52-5.815-16.52-18.88,0-13.52,17.277-30.58,18.575-31.843l0,0,.075-.073S514.34,564.3,514.34,578.344Z" transform="translate(-355.522 -411.561)" fill="#81b7a6"/>
    <path id="Path_152" data-name="Path 152" d="M522.235,595.147l6.822-9.532-6.839,10.579-.018,1.094c-.477-.01-.95-.033-1.417-.065l.735-14.054-.006-.109.013-.02.069-1.327-6.856-10.605,6.878,9.61.016.282.556-10.619-5.87-10.959,5.941,9.095.578-22.015,0-.075v.073l-.1,17.36,5.844-6.882-5.867,8.378-.154,9.507,5.456-9.124-5.479,10.523-.086,5.286,7.921-12.7-7.951,14.544Z" transform="translate(-382.748 -411.56)" fill="#3f3d56"/>
    <path id="Path_153" data-name="Path 153" d="M769.675,592.014c0,15.3-9.1,20.646-20.319,20.646q-.39,0-.779-.009c-.52-.011-1.035-.036-1.544-.071-10.128-.717-18-6.335-18-20.567,0-14.729,18.821-33.313,20.235-34.689l0,0,.082-.079S769.675,576.711,769.675,592.014Z" transform="translate(-537.503 -419.373)" fill="#81b7a6"/>
    <path id="Path_154" data-name="Path 154" d="M778.275,610.32l7.432-10.384-7.45,11.525-.02,1.192c-.52-.011-1.035-.036-1.544-.071l.8-15.31-.006-.119.014-.022.076-1.446-7.469-11.553L777.6,594.6l.017.307.605-11.568L771.829,571.4l6.472,9.908.63-23.983,0-.082v.079l-.105,18.912,6.366-7.5-6.392,9.127-.168,10.357,5.944-9.94-5.968,11.464-.094,5.758,8.629-13.835-8.661,15.844Z" transform="translate(-567.163 -419.373)" fill="#3f3d56"/>
    <ellipse id="Ellipse_20" data-name="Ellipse 20" cx="3.445" cy="10.975" rx="3.445" ry="10.975" transform="translate(178.051 163.949) rotate(-64.626)" fill="#2f2e41"/>
    <ellipse id="Ellipse_21" data-name="Ellipse 21" cx="3.445" cy="10.975" rx="3.445" ry="10.975" transform="translate(8.763 163.264) rotate(-68.159)" fill="#2f2e41"/>
  </g>
</svg>
